<mxfile host="app.diagrams.net" modified="2021-04-25T19:57:38.763Z" agent="5.0 (Windows)" etag="2XmxzWoHhb6uzEFPfbcf" version="14.6.6" type="github">
  <diagram id="R2lEEEUBdFMjLlhIrx00" name="Page-1">
    <mxGraphModel dx="1422" dy="735" grid="1" gridSize="10" guides="1" tooltips="1" connect="1" arrows="1" fold="1" page="1" pageScale="1" pageWidth="850" pageHeight="1100" math="0" shadow="0" extFonts="Permanent Marker^https://fonts.googleapis.com/css?family=Permanent+Marker">
      <root>
        <mxCell id="0" />
        <mxCell id="1" parent="0" />
        <mxCell id="nEgz5-GOV0EEa66xPJvQ-1" value="Client" style="whiteSpace=wrap;html=1;align=center;" vertex="1" parent="1">
          <mxGeometry x="120" y="160" width="120" height="40" as="geometry" />
        </mxCell>
        <mxCell id="nEgz5-GOV0EEa66xPJvQ-2" value="Trip" style="whiteSpace=wrap;html=1;align=center;" vertex="1" parent="1">
          <mxGeometry x="400" y="160" width="120" height="40" as="geometry" />
        </mxCell>
        <mxCell id="nEgz5-GOV0EEa66xPJvQ-3" value="Category" style="whiteSpace=wrap;html=1;align=center;" vertex="1" parent="1">
          <mxGeometry x="680" y="160" width="120" height="40" as="geometry" />
        </mxCell>
        <mxCell id="nEgz5-GOV0EEa66xPJvQ-4" value="Contact method" style="whiteSpace=wrap;html=1;align=center;" vertex="1" parent="1">
          <mxGeometry x="130" y="580" width="120" height="40" as="geometry" />
        </mxCell>
        <mxCell id="nEgz5-GOV0EEa66xPJvQ-5" value="Paiement method" style="whiteSpace=wrap;html=1;align=center;" vertex="1" parent="1">
          <mxGeometry x="290" y="530" width="120" height="40" as="geometry" />
        </mxCell>
        <mxCell id="nEgz5-GOV0EEa66xPJvQ-6" value="buys" style="shape=rhombus;perimeter=rhombusPerimeter;whiteSpace=wrap;html=1;align=center;" vertex="1" parent="1">
          <mxGeometry x="280" y="160" width="80" height="40" as="geometry" />
        </mxCell>
        <mxCell id="nEgz5-GOV0EEa66xPJvQ-7" value="" style="endArrow=none;html=1;rounded=0;exitX=1;exitY=0.5;exitDx=0;exitDy=0;entryX=0;entryY=0.5;entryDx=0;entryDy=0;" edge="1" parent="1" source="nEgz5-GOV0EEa66xPJvQ-1" target="nEgz5-GOV0EEa66xPJvQ-6">
          <mxGeometry relative="1" as="geometry">
            <mxPoint x="240" y="240" as="sourcePoint" />
            <mxPoint x="400" y="240" as="targetPoint" />
          </mxGeometry>
        </mxCell>
        <mxCell id="nEgz5-GOV0EEa66xPJvQ-8" value="1" style="resizable=0;html=1;align=right;verticalAlign=bottom;" connectable="0" vertex="1" parent="nEgz5-GOV0EEa66xPJvQ-7">
          <mxGeometry x="1" relative="1" as="geometry" />
        </mxCell>
        <mxCell id="nEgz5-GOV0EEa66xPJvQ-9" value="" style="endArrow=none;html=1;rounded=0;exitX=1;exitY=0.5;exitDx=0;exitDy=0;entryX=0;entryY=0.5;entryDx=0;entryDy=0;" edge="1" parent="1" source="nEgz5-GOV0EEa66xPJvQ-6" target="nEgz5-GOV0EEa66xPJvQ-2">
          <mxGeometry relative="1" as="geometry">
            <mxPoint x="340" y="380" as="sourcePoint" />
            <mxPoint x="500" y="380" as="targetPoint" />
          </mxGeometry>
        </mxCell>
        <mxCell id="nEgz5-GOV0EEa66xPJvQ-10" value="N" style="resizable=0;html=1;align=right;verticalAlign=bottom;" connectable="0" vertex="1" parent="nEgz5-GOV0EEa66xPJvQ-9">
          <mxGeometry x="1" relative="1" as="geometry" />
        </mxCell>
        <mxCell id="nEgz5-GOV0EEa66xPJvQ-12" value="has" style="shape=rhombus;perimeter=rhombusPerimeter;whiteSpace=wrap;html=1;align=center;" vertex="1" parent="1">
          <mxGeometry x="560" y="160" width="80" height="40" as="geometry" />
        </mxCell>
        <mxCell id="nEgz5-GOV0EEa66xPJvQ-13" value="" style="endArrow=none;html=1;rounded=0;exitX=1;exitY=0.5;exitDx=0;exitDy=0;entryX=0;entryY=0.5;entryDx=0;entryDy=0;" edge="1" parent="1" target="nEgz5-GOV0EEa66xPJvQ-12" source="nEgz5-GOV0EEa66xPJvQ-2">
          <mxGeometry relative="1" as="geometry">
            <mxPoint x="520" y="180" as="sourcePoint" />
            <mxPoint x="680" y="240" as="targetPoint" />
          </mxGeometry>
        </mxCell>
        <mxCell id="nEgz5-GOV0EEa66xPJvQ-14" value="1" style="resizable=0;html=1;align=right;verticalAlign=bottom;" connectable="0" vertex="1" parent="nEgz5-GOV0EEa66xPJvQ-13">
          <mxGeometry x="1" relative="1" as="geometry" />
        </mxCell>
        <mxCell id="nEgz5-GOV0EEa66xPJvQ-22" value="" style="endArrow=none;html=1;rounded=0;exitX=0;exitY=0.5;exitDx=0;exitDy=0;entryX=1;entryY=0.5;entryDx=0;entryDy=0;" edge="1" parent="1" source="nEgz5-GOV0EEa66xPJvQ-3" target="nEgz5-GOV0EEa66xPJvQ-12">
          <mxGeometry relative="1" as="geometry">
            <mxPoint x="530" y="190" as="sourcePoint" />
            <mxPoint x="570" y="190" as="targetPoint" />
          </mxGeometry>
        </mxCell>
        <mxCell id="nEgz5-GOV0EEa66xPJvQ-23" value="1" style="resizable=0;html=1;align=right;verticalAlign=bottom;" connectable="0" vertex="1" parent="nEgz5-GOV0EEa66xPJvQ-22">
          <mxGeometry x="1" relative="1" as="geometry" />
        </mxCell>
        <mxCell id="nEgz5-GOV0EEa66xPJvQ-24" value="ID" style="ellipse;whiteSpace=wrap;html=1;align=center;" vertex="1" parent="1">
          <mxGeometry x="690" y="200" width="100" height="40" as="geometry" />
        </mxCell>
        <mxCell id="nEgz5-GOV0EEa66xPJvQ-25" value="Name" style="ellipse;whiteSpace=wrap;html=1;align=center;" vertex="1" parent="1">
          <mxGeometry x="690" y="240" width="100" height="40" as="geometry" />
        </mxCell>
        <mxCell id="nEgz5-GOV0EEa66xPJvQ-26" value="Description" style="ellipse;whiteSpace=wrap;html=1;align=center;" vertex="1" parent="1">
          <mxGeometry x="690" y="280" width="100" height="40" as="geometry" />
        </mxCell>
        <mxCell id="nEgz5-GOV0EEa66xPJvQ-27" value="ID" style="ellipse;whiteSpace=wrap;html=1;align=center;" vertex="1" parent="1">
          <mxGeometry x="410" y="200" width="100" height="40" as="geometry" />
        </mxCell>
        <mxCell id="nEgz5-GOV0EEa66xPJvQ-28" value="Name" style="ellipse;whiteSpace=wrap;html=1;align=center;" vertex="1" parent="1">
          <mxGeometry x="410" y="240" width="100" height="40" as="geometry" />
        </mxCell>
        <mxCell id="nEgz5-GOV0EEa66xPJvQ-29" value="Begin date" style="ellipse;whiteSpace=wrap;html=1;align=center;" vertex="1" parent="1">
          <mxGeometry x="410" y="280" width="100" height="40" as="geometry" />
        </mxCell>
        <mxCell id="nEgz5-GOV0EEa66xPJvQ-30" value="Duration" style="ellipse;whiteSpace=wrap;html=1;align=center;" vertex="1" parent="1">
          <mxGeometry x="410" y="320" width="100" height="40" as="geometry" />
        </mxCell>
        <mxCell id="nEgz5-GOV0EEa66xPJvQ-31" value="Description" style="ellipse;whiteSpace=wrap;html=1;align=center;" vertex="1" parent="1">
          <mxGeometry x="410" y="360" width="100" height="40" as="geometry" />
        </mxCell>
        <mxCell id="nEgz5-GOV0EEa66xPJvQ-32" value="Price" style="ellipse;whiteSpace=wrap;html=1;align=center;" vertex="1" parent="1">
          <mxGeometry x="410" y="400" width="100" height="40" as="geometry" />
        </mxCell>
        <mxCell id="nEgz5-GOV0EEa66xPJvQ-33" value="ID" style="ellipse;whiteSpace=wrap;html=1;align=center;" vertex="1" parent="1">
          <mxGeometry x="130" y="200" width="100" height="40" as="geometry" />
        </mxCell>
        <mxCell id="nEgz5-GOV0EEa66xPJvQ-34" value="Name" style="ellipse;whiteSpace=wrap;html=1;align=center;" vertex="1" parent="1">
          <mxGeometry x="130" y="240" width="100" height="40" as="geometry" />
        </mxCell>
        <mxCell id="nEgz5-GOV0EEa66xPJvQ-35" value="Surname" style="ellipse;whiteSpace=wrap;html=1;align=center;" vertex="1" parent="1">
          <mxGeometry x="130" y="280" width="100" height="40" as="geometry" />
        </mxCell>
        <mxCell id="nEgz5-GOV0EEa66xPJvQ-36" value="Address" style="ellipse;whiteSpace=wrap;html=1;align=center;" vertex="1" parent="1">
          <mxGeometry x="130" y="320" width="100" height="40" as="geometry" />
        </mxCell>
        <mxCell id="nEgz5-GOV0EEa66xPJvQ-38" value="PLZ" style="ellipse;whiteSpace=wrap;html=1;align=center;" vertex="1" parent="1">
          <mxGeometry x="130" y="360" width="100" height="40" as="geometry" />
        </mxCell>
        <mxCell id="nEgz5-GOV0EEa66xPJvQ-39" value="City" style="ellipse;whiteSpace=wrap;html=1;align=center;" vertex="1" parent="1">
          <mxGeometry x="130" y="400" width="100" height="40" as="geometry" />
        </mxCell>
        <mxCell id="nEgz5-GOV0EEa66xPJvQ-40" value="has" style="shape=rhombus;perimeter=rhombusPerimeter;whiteSpace=wrap;html=1;align=center;" vertex="1" parent="1">
          <mxGeometry x="150" y="520" width="80" height="40" as="geometry" />
        </mxCell>
        <mxCell id="nEgz5-GOV0EEa66xPJvQ-41" value="has" style="shape=rhombus;perimeter=rhombusPerimeter;whiteSpace=wrap;html=1;align=center;" vertex="1" parent="1">
          <mxGeometry x="310" y="450" width="80" height="40" as="geometry" />
        </mxCell>
        <mxCell id="nEgz5-GOV0EEa66xPJvQ-42" value="" style="endArrow=none;html=1;rounded=0;exitX=0.5;exitY=1;exitDx=0;exitDy=0;entryX=0.5;entryY=0;entryDx=0;entryDy=0;" edge="1" parent="1" source="nEgz5-GOV0EEa66xPJvQ-41" target="nEgz5-GOV0EEa66xPJvQ-5">
          <mxGeometry relative="1" as="geometry">
            <mxPoint x="340" y="470" as="sourcePoint" />
            <mxPoint x="500" y="470" as="targetPoint" />
          </mxGeometry>
        </mxCell>
        <mxCell id="nEgz5-GOV0EEa66xPJvQ-43" value="N" style="resizable=0;html=1;align=right;verticalAlign=bottom;" connectable="0" vertex="1" parent="nEgz5-GOV0EEa66xPJvQ-42">
          <mxGeometry x="1" relative="1" as="geometry" />
        </mxCell>
        <mxCell id="nEgz5-GOV0EEa66xPJvQ-44" value="" style="endArrow=none;html=1;rounded=0;exitX=0.5;exitY=1;exitDx=0;exitDy=0;entryX=0.5;entryY=0;entryDx=0;entryDy=0;" edge="1" parent="1" source="nEgz5-GOV0EEa66xPJvQ-40" target="nEgz5-GOV0EEa66xPJvQ-4">
          <mxGeometry relative="1" as="geometry">
            <mxPoint x="360" y="510" as="sourcePoint" />
            <mxPoint x="360" y="540" as="targetPoint" />
          </mxGeometry>
        </mxCell>
        <mxCell id="nEgz5-GOV0EEa66xPJvQ-45" value="N" style="resizable=0;html=1;align=right;verticalAlign=bottom;" connectable="0" vertex="1" parent="nEgz5-GOV0EEa66xPJvQ-44">
          <mxGeometry x="1" relative="1" as="geometry" />
        </mxCell>
        <mxCell id="nEgz5-GOV0EEa66xPJvQ-46" value="" style="endArrow=none;html=1;rounded=0;exitX=1;exitY=1;exitDx=0;exitDy=0;entryX=0.5;entryY=0;entryDx=0;entryDy=0;" edge="1" parent="1" source="nEgz5-GOV0EEa66xPJvQ-1" target="nEgz5-GOV0EEa66xPJvQ-41">
          <mxGeometry relative="1" as="geometry">
            <mxPoint x="340" y="440" as="sourcePoint" />
            <mxPoint x="500" y="440" as="targetPoint" />
          </mxGeometry>
        </mxCell>
        <mxCell id="nEgz5-GOV0EEa66xPJvQ-47" value="1" style="resizable=0;html=1;align=right;verticalAlign=bottom;" connectable="0" vertex="1" parent="nEgz5-GOV0EEa66xPJvQ-46">
          <mxGeometry x="1" relative="1" as="geometry">
            <mxPoint x="-10" as="offset" />
          </mxGeometry>
        </mxCell>
        <mxCell id="nEgz5-GOV0EEa66xPJvQ-51" value="" style="endArrow=none;html=1;rounded=0;" edge="1" parent="1" target="nEgz5-GOV0EEa66xPJvQ-40">
          <mxGeometry relative="1" as="geometry">
            <mxPoint x="240" y="200" as="sourcePoint" />
            <mxPoint x="500" y="440" as="targetPoint" />
          </mxGeometry>
        </mxCell>
        <mxCell id="nEgz5-GOV0EEa66xPJvQ-52" value="1" style="resizable=0;html=1;align=right;verticalAlign=bottom;" connectable="0" vertex="1" parent="nEgz5-GOV0EEa66xPJvQ-51">
          <mxGeometry x="1" relative="1" as="geometry" />
        </mxCell>
      </root>
    </mxGraphModel>
  </diagram>
</mxfile>
